<svg width="934" height="345" viewBox="0 0 934 345" fill="none" xmlns="http://www.w3.org/2000/svg">
<path d="M412.656 213.152C409.072 213.152 405.744 212.512 402.672 211.232C399.664 209.888 397.232 207.936 395.376 205.376L396.72 202.4V212H383.28V139.328H397.68V169.568L395.472 166.688C397.2 164.064 399.536 162.048 402.48 160.64C405.488 159.168 408.912 158.432 412.752 158.432C417.744 158.432 422.256 159.648 426.288 162.08C430.32 164.512 433.52 167.808 435.888 171.968C438.256 176.064 439.44 180.672 439.44 185.792C439.44 190.848 438.256 195.456 435.888 199.616C433.584 203.776 430.416 207.072 426.384 209.504C422.352 211.936 417.776 213.152 412.656 213.152ZM410.928 200.192C413.616 200.192 415.984 199.584 418.032 198.368C420.08 197.152 421.68 195.456 422.832 193.28C423.984 191.104 424.56 188.608 424.56 185.792C424.56 182.976 423.984 180.512 422.832 178.4C421.68 176.224 420.08 174.528 418.032 173.312C415.984 172.032 413.616 171.392 410.928 171.392C408.368 171.392 406.064 172 404.016 173.216C402.032 174.432 400.464 176.128 399.312 178.304C398.224 180.48 397.68 182.976 397.68 185.792C397.68 188.608 398.224 191.104 399.312 193.28C400.464 195.456 402.032 197.152 404.016 198.368C406.064 199.584 408.368 200.192 410.928 200.192ZM473.89 213.152C468.706 213.152 463.97 211.968 459.682 209.6C455.458 207.232 452.066 204 449.506 199.904C447.01 195.744 445.762 191.04 445.762 185.792C445.762 180.48 447.01 175.776 449.506 171.68C452.066 167.584 455.458 164.352 459.682 161.984C463.97 159.616 468.706 158.432 473.89 158.432C479.074 158.432 483.778 159.616 488.002 161.984C492.226 164.352 495.586 167.584 498.082 171.68C500.642 175.776 501.922 180.48 501.922 185.792C501.922 191.04 500.642 195.744 498.082 199.904C495.586 204 492.226 207.232 488.002 209.6C483.778 211.968 479.074 213.152 473.89 213.152ZM473.89 200.192C476.514 200.192 478.786 199.584 480.706 198.368C482.69 197.152 484.226 195.456 485.314 193.28C486.466 191.104 487.042 188.608 487.042 185.792C487.042 182.976 486.466 180.512 485.314 178.4C484.226 176.224 482.69 174.528 480.706 173.312C478.786 172.032 476.514 171.392 473.89 171.392C471.266 171.392 468.962 172.032 466.978 173.312C464.994 174.528 463.426 176.224 462.274 178.4C461.186 180.512 460.642 182.976 460.642 185.792C460.642 188.608 461.186 191.104 462.274 193.28C463.426 195.456 464.994 197.152 466.978 198.368C468.962 199.584 471.266 200.192 473.89 200.192ZM510.405 212V159.584H524.805V212H510.405ZM510.405 154.88V140.48H524.805V154.88H510.405ZM535.343 212V139.328H549.743V212H535.343ZM585.528 213.152C579.96 213.152 575.128 211.936 571.032 209.504C566.936 207.008 563.768 203.68 561.528 199.52C559.288 195.36 558.168 190.752 558.168 185.696C558.168 180.448 559.32 175.776 561.624 171.68C563.992 167.584 567.16 164.352 571.128 161.984C575.096 159.616 579.576 158.432 584.568 158.432C588.728 158.432 592.408 159.104 595.608 160.448C598.808 161.728 601.496 163.552 603.672 165.92C605.912 168.288 607.608 171.04 608.76 174.176C609.912 177.248 610.488 180.608 610.488 184.256C610.488 185.28 610.424 186.304 610.296 187.328C610.232 188.288 610.072 189.12 609.816 189.824H570.552V179.264H601.656L594.84 184.256C595.48 181.504 595.448 179.072 594.744 176.96C594.04 174.784 592.792 173.088 591 171.872C589.272 170.592 587.128 169.952 584.568 169.952C582.072 169.952 579.928 170.56 578.136 171.776C576.344 172.992 575 174.784 574.104 177.152C573.208 179.52 572.856 182.4 573.048 185.792C572.792 188.736 573.144 191.328 574.104 193.568C575.064 195.808 576.536 197.568 578.52 198.848C580.504 200.064 582.904 200.672 585.72 200.672C588.28 200.672 590.456 200.16 592.248 199.136C594.104 198.112 595.544 196.704 596.568 194.912L608.088 200.384C607.064 202.944 605.432 205.184 603.192 207.104C601.016 209.024 598.424 210.528 595.416 211.616C592.408 212.64 589.112 213.152 585.528 213.152ZM618.968 212V159.584H632.408V172.16L631.448 170.336C632.6 165.92 634.488 162.944 637.112 161.408C639.8 159.808 642.968 159.008 646.616 159.008H649.688V171.488H645.176C641.656 171.488 638.808 172.576 636.632 174.752C634.456 176.864 633.368 179.872 633.368 183.776V212H618.968ZM655.999 231.2V159.584H669.439V169.568L668.191 166.688C669.919 164.064 672.255 162.048 675.199 160.64C678.207 159.168 681.631 158.432 685.471 158.432C690.463 158.432 694.975 159.648 699.007 162.08C703.039 164.512 706.239 167.808 708.607 171.968C710.975 176.064 712.159 180.672 712.159 185.792C712.159 190.848 710.975 195.456 708.607 199.616C706.303 203.776 703.135 207.072 699.103 209.504C695.071 211.936 690.495 213.152 685.375 213.152C681.791 213.152 678.463 212.512 675.391 211.232C672.383 209.888 669.951 207.936 668.095 205.376L670.399 202.4V231.2H655.999ZM683.647 200.192C686.335 200.192 688.703 199.584 690.751 198.368C692.799 197.152 694.399 195.456 695.551 193.28C696.703 191.104 697.279 188.608 697.279 185.792C697.279 182.976 696.703 180.512 695.551 178.4C694.399 176.224 692.799 174.528 690.751 173.312C688.703 172.032 686.335 171.392 683.647 171.392C681.087 171.392 678.783 172 676.735 173.216C674.751 174.432 673.183 176.128 672.031 178.304C670.943 180.48 670.399 182.976 670.399 185.792C670.399 188.608 670.943 191.104 672.031 193.28C673.183 195.456 674.751 197.152 676.735 198.368C678.783 199.584 681.087 200.192 683.647 200.192ZM720.593 212V139.328H734.993V212H720.593ZM761.754 213.152C757.978 213.152 754.714 212.544 751.962 211.328C749.21 210.112 747.098 208.384 745.626 206.144C744.154 203.84 743.418 201.12 743.418 197.984C743.418 195.04 744.09 192.448 745.434 190.208C746.778 187.904 748.826 185.984 751.578 184.448C754.394 182.912 757.882 181.824 762.042 181.184L778.074 178.592V189.152L764.634 191.552C762.586 191.936 761.018 192.608 759.93 193.568C758.842 194.464 758.298 195.776 758.298 197.504C758.298 199.104 758.906 200.352 760.122 201.248C761.338 202.144 762.842 202.592 764.634 202.592C767.002 202.592 769.082 202.08 770.874 201.056C772.666 200.032 774.042 198.656 775.002 196.928C776.026 195.136 776.538 193.184 776.538 191.072V177.44C776.538 175.456 775.738 173.792 774.138 172.448C772.602 171.104 770.49 170.432 767.802 170.432C765.242 170.432 762.97 171.136 760.986 172.544C759.066 173.952 757.658 175.808 756.762 178.112L745.242 172.64C746.266 169.696 747.898 167.168 750.138 165.056C752.378 162.944 755.066 161.312 758.202 160.16C761.338 159.008 764.762 158.432 768.474 158.432C772.89 158.432 776.794 159.232 780.186 160.832C783.578 162.432 786.202 164.672 788.058 167.552C789.978 170.368 790.938 173.664 790.938 177.44V212H777.498V203.552L780.762 202.976C779.226 205.28 777.53 207.2 775.674 208.736C773.818 210.208 771.738 211.296 769.434 212C767.13 212.768 764.57 213.152 761.754 213.152ZM825.809 212.576C819.473 212.576 814.545 210.88 811.025 207.488C807.569 204.032 805.841 199.232 805.841 193.088V172.064H797.009V159.584H797.489C800.177 159.584 802.225 158.912 803.633 157.568C805.105 156.224 805.841 154.208 805.841 151.52V147.68H820.241V159.584H832.529V172.064H820.241V192.128C820.241 193.92 820.561 195.424 821.201 196.64C821.841 197.792 822.833 198.656 824.177 199.232C825.521 199.808 827.185 200.096 829.169 200.096C829.617 200.096 830.129 200.064 830.705 200C831.281 199.936 831.889 199.872 832.529 199.808V212C831.569 212.128 830.481 212.256 829.265 212.384C828.049 212.512 826.897 212.576 825.809 212.576ZM866.216 213.152C860.648 213.152 855.816 211.936 851.72 209.504C847.624 207.008 844.456 203.68 842.216 199.52C839.976 195.36 838.855 190.752 838.855 185.696C838.855 180.448 840.008 175.776 842.312 171.68C844.68 167.584 847.848 164.352 851.816 161.984C855.784 159.616 860.264 158.432 865.256 158.432C869.416 158.432 873.096 159.104 876.296 160.448C879.496 161.728 882.184 163.552 884.36 165.92C886.6 168.288 888.296 171.04 889.448 174.176C890.6 177.248 891.176 180.608 891.176 184.256C891.176 185.28 891.112 186.304 890.984 187.328C890.92 188.288 890.76 189.12 890.504 189.824H851.24V179.264H882.344L875.528 184.256C876.168 181.504 876.136 179.072 875.432 176.96C874.728 174.784 873.48 173.088 871.688 171.872C869.96 170.592 867.816 169.952 865.256 169.952C862.76 169.952 860.616 170.56 858.824 171.776C857.032 172.992 855.688 174.784 854.792 177.152C853.896 179.52 853.544 182.4 853.736 185.792C853.48 188.736 853.832 191.328 854.792 193.568C855.752 195.808 857.224 197.568 859.208 198.848C861.192 200.064 863.592 200.672 866.408 200.672C868.968 200.672 871.144 200.16 872.936 199.136C874.792 198.112 876.232 196.704 877.256 194.912L888.776 200.384C887.752 202.944 886.12 205.184 883.88 207.104C881.704 209.024 879.112 210.528 876.104 211.616C873.096 212.64 869.8 213.152 866.216 213.152Z" fill="#27272A"/>
<path d="M24.336 212V140.48H39.216V199.04H69.456V212H24.336ZM92.004 213.152C88.228 213.152 84.964 212.544 82.212 211.328C79.46 210.112 77.348 208.384 75.876 206.144C74.404 203.84 73.668 201.12 73.668 197.984C73.668 195.04 74.34 192.448 75.684 190.208C77.028 187.904 79.076 185.984 81.828 184.448C84.644 182.912 88.132 181.824 92.292 181.184L108.324 178.592V189.152L94.884 191.552C92.836 191.936 91.268 192.608 90.18 193.568C89.092 194.464 88.548 195.776 88.548 197.504C88.548 199.104 89.156 200.352 90.372 201.248C91.588 202.144 93.092 202.592 94.884 202.592C97.252 202.592 99.332 202.08 101.124 201.056C102.916 200.032 104.292 198.656 105.252 196.928C106.276 195.136 106.788 193.184 106.788 191.072V177.44C106.788 175.456 105.988 173.792 104.388 172.448C102.852 171.104 100.74 170.432 98.052 170.432C95.492 170.432 93.22 171.136 91.236 172.544C89.316 173.952 87.908 175.808 87.012 178.112L75.492 172.64C76.516 169.696 78.148 167.168 80.388 165.056C82.628 162.944 85.316 161.312 88.452 160.16C91.588 159.008 95.012 158.432 98.724 158.432C103.14 158.432 107.044 159.232 110.436 160.832C113.828 162.432 116.452 164.672 118.308 167.552C120.228 170.368 121.188 173.664 121.188 177.44V212H107.748V203.552L111.012 202.976C109.476 205.28 107.78 207.2 105.924 208.736C104.068 210.208 101.988 211.296 99.684 212C97.38 212.768 94.82 213.152 92.004 213.152ZM131.749 212V159.584H145.189V172.16L144.229 170.336C145.381 165.92 147.269 162.944 149.893 161.408C152.581 159.808 155.749 159.008 159.397 159.008H162.469V171.488H157.957C154.437 171.488 151.589 172.576 149.413 174.752C147.237 176.864 146.149 179.872 146.149 183.776V212H131.749ZM185.004 213.152C181.228 213.152 177.964 212.544 175.212 211.328C172.46 210.112 170.348 208.384 168.876 206.144C167.404 203.84 166.668 201.12 166.668 197.984C166.668 195.04 167.34 192.448 168.684 190.208C170.028 187.904 172.076 185.984 174.828 184.448C177.644 182.912 181.132 181.824 185.292 181.184L201.324 178.592V189.152L187.884 191.552C185.836 191.936 184.268 192.608 183.18 193.568C182.092 194.464 181.548 195.776 181.548 197.504C181.548 199.104 182.156 200.352 183.372 201.248C184.588 202.144 186.092 202.592 187.884 202.592C190.252 202.592 192.332 202.08 194.124 201.056C195.916 200.032 197.292 198.656 198.252 196.928C199.276 195.136 199.788 193.184 199.788 191.072V177.44C199.788 175.456 198.988 173.792 197.388 172.448C195.852 171.104 193.74 170.432 191.052 170.432C188.492 170.432 186.22 171.136 184.236 172.544C182.316 173.952 180.908 175.808 180.012 178.112L168.492 172.64C169.516 169.696 171.148 167.168 173.388 165.056C175.628 162.944 178.316 161.312 181.452 160.16C184.588 159.008 188.012 158.432 191.724 158.432C196.14 158.432 200.044 159.232 203.436 160.832C206.828 162.432 209.452 164.672 211.308 167.552C213.228 170.368 214.188 173.664 214.188 177.44V212H200.748V203.552L204.012 202.976C202.476 205.28 200.78 207.2 198.924 208.736C197.068 210.208 194.988 211.296 192.684 212C190.38 212.768 187.82 213.152 185.004 213.152ZM240.227 212L219.587 159.584H235.139L249.443 199.232H243.491L257.795 159.584H273.347L252.707 212H240.227ZM303.997 213.152C298.429 213.152 293.597 211.936 289.501 209.504C285.405 207.008 282.237 203.68 279.997 199.52C277.757 195.36 276.637 190.752 276.637 185.696C276.637 180.448 277.789 175.776 280.093 171.68C282.461 167.584 285.629 164.352 289.597 161.984C293.565 159.616 298.045 158.432 303.037 158.432C307.197 158.432 310.877 159.104 314.077 160.448C317.277 161.728 319.965 163.552 322.141 165.92C324.381 168.288 326.077 171.04 327.229 174.176C328.381 177.248 328.957 180.608 328.957 184.256C328.957 185.28 328.893 186.304 328.765 187.328C328.701 188.288 328.541 189.12 328.285 189.824H289.021V179.264H320.125L313.309 184.256C313.949 181.504 313.917 179.072 313.213 176.96C312.509 174.784 311.261 173.088 309.469 171.872C307.741 170.592 305.597 169.952 303.037 169.952C300.541 169.952 298.397 170.56 296.605 171.776C294.813 172.992 293.469 174.784 292.573 177.152C291.677 179.52 291.325 182.4 291.517 185.792C291.261 188.736 291.613 191.328 292.573 193.568C293.533 195.808 295.005 197.568 296.989 198.848C298.973 200.064 301.373 200.672 304.189 200.672C306.749 200.672 308.925 200.16 310.717 199.136C312.573 198.112 314.013 196.704 315.037 194.912L326.557 200.384C325.533 202.944 323.901 205.184 321.661 207.104C319.485 209.024 316.893 210.528 313.885 211.616C310.877 212.64 307.581 213.152 303.997 213.152ZM337.436 212V139.328H351.836V212H337.436Z" fill="#EF3B2D"/>
</svg>
